<mxfile host="app.diagrams.net" modified="2021-02-24T17:58:16.514Z" agent="5.0 (Macintosh; Intel Mac OS X 10_15_7) AppleWebKit/537.36 (KHTML, like Gecko) Chrome/88.0.4324.182 Safari/537.36" etag="xAalHhT16e7fYu_XOH-z" version="14.4.2" type="github">
  <diagram id="Y4Er28gGYwmPT1ONX5_L" name="Page-1">
    <mxGraphModel dx="1261" dy="783" grid="1" gridSize="10" guides="1" tooltips="1" connect="1" arrows="1" fold="1" page="1" pageScale="1" pageWidth="850" pageHeight="1100" math="0" shadow="0">
      <root>
        <mxCell id="0" />
        <mxCell id="1" parent="0" />
        <mxCell id="ww2Ax3JJ7ZaF3GS8L2p9-1" value="User rolls dice" style="ellipse;whiteSpace=wrap;html=1;" parent="1" vertex="1">
          <mxGeometry x="40" y="40" width="120" height="80" as="geometry" />
        </mxCell>
        <mxCell id="ww2Ax3JJ7ZaF3GS8L2p9-2" value="" style="endArrow=classic;html=1;" parent="1" edge="1">
          <mxGeometry width="50" height="50" relative="1" as="geometry">
            <mxPoint x="160" y="80" as="sourcePoint" />
            <mxPoint x="240" y="80" as="targetPoint" />
          </mxGeometry>
        </mxCell>
        <mxCell id="ww2Ax3JJ7ZaF3GS8L2p9-6" style="edgeStyle=orthogonalEdgeStyle;rounded=0;orthogonalLoop=1;jettySize=auto;html=1;exitX=1;exitY=0.5;exitDx=0;exitDy=0;" parent="1" source="ww2Ax3JJ7ZaF3GS8L2p9-3" edge="1">
          <mxGeometry relative="1" as="geometry">
            <mxPoint x="370" y="80" as="targetPoint" />
          </mxGeometry>
        </mxCell>
        <mxCell id="ww2Ax3JJ7ZaF3GS8L2p9-3" value="Generate random dice roll" style="rounded=0;whiteSpace=wrap;html=1;" parent="1" vertex="1">
          <mxGeometry x="240" y="50" width="120" height="60" as="geometry" />
        </mxCell>
        <mxCell id="ww2Ax3JJ7ZaF3GS8L2p9-5" value="" style="endArrow=classic;html=1;" parent="1" edge="1">
          <mxGeometry width="50" height="50" relative="1" as="geometry">
            <mxPoint x="370" y="80" as="sourcePoint" />
            <mxPoint x="440" y="80" as="targetPoint" />
          </mxGeometry>
        </mxCell>
        <mxCell id="ww2Ax3JJ7ZaF3GS8L2p9-7" value="Display dice roll" style="rounded=0;whiteSpace=wrap;html=1;" parent="1" vertex="1">
          <mxGeometry x="440" y="50" width="120" height="60" as="geometry" />
        </mxCell>
        <mxCell id="ww2Ax3JJ7ZaF3GS8L2p9-8" value="" style="endArrow=classic;html=1;exitX=1;exitY=0.5;exitDx=0;exitDy=0;" parent="1" source="ww2Ax3JJ7ZaF3GS8L2p9-7" edge="1">
          <mxGeometry width="50" height="50" relative="1" as="geometry">
            <mxPoint x="560" y="110" as="sourcePoint" />
            <mxPoint x="640" y="80" as="targetPoint" />
          </mxGeometry>
        </mxCell>
        <mxCell id="ww2Ax3JJ7ZaF3GS8L2p9-9" value="Is it a 1?" style="rhombus;whiteSpace=wrap;html=1;" parent="1" vertex="1">
          <mxGeometry x="640" y="40" width="80" height="80" as="geometry" />
        </mxCell>
        <mxCell id="ww2Ax3JJ7ZaF3GS8L2p9-16" value="" style="edgeStyle=orthogonalEdgeStyle;rounded=0;orthogonalLoop=1;jettySize=auto;html=1;" parent="1" source="ww2Ax3JJ7ZaF3GS8L2p9-10" target="ww2Ax3JJ7ZaF3GS8L2p9-15" edge="1">
          <mxGeometry relative="1" as="geometry" />
        </mxCell>
        <mxCell id="ww2Ax3JJ7ZaF3GS8L2p9-10" value="Add dice roll to current scorce" style="rounded=0;whiteSpace=wrap;html=1;" parent="1" vertex="1">
          <mxGeometry x="804" y="50" width="120" height="60" as="geometry" />
        </mxCell>
        <mxCell id="ww2Ax3JJ7ZaF3GS8L2p9-11" value="" style="endArrow=classic;html=1;entryX=0;entryY=0.5;entryDx=0;entryDy=0;exitX=1;exitY=0.5;exitDx=0;exitDy=0;" parent="1" source="ww2Ax3JJ7ZaF3GS8L2p9-9" target="ww2Ax3JJ7ZaF3GS8L2p9-10" edge="1">
          <mxGeometry width="50" height="50" relative="1" as="geometry">
            <mxPoint x="730" y="80" as="sourcePoint" />
            <mxPoint x="780" y="60" as="targetPoint" />
          </mxGeometry>
        </mxCell>
        <mxCell id="ww2Ax3JJ7ZaF3GS8L2p9-12" value="No" style="text;html=1;align=center;verticalAlign=middle;resizable=0;points=[];autosize=1;" parent="1" vertex="1">
          <mxGeometry x="735" y="60" width="30" height="20" as="geometry" />
        </mxCell>
        <mxCell id="ww2Ax3JJ7ZaF3GS8L2p9-13" value="" style="endArrow=classic;html=1;exitX=0.5;exitY=1;exitDx=0;exitDy=0;" parent="1" source="ww2Ax3JJ7ZaF3GS8L2p9-9" edge="1">
          <mxGeometry width="50" height="50" relative="1" as="geometry">
            <mxPoint x="680" y="150" as="sourcePoint" />
            <mxPoint x="680" y="200" as="targetPoint" />
          </mxGeometry>
        </mxCell>
        <mxCell id="ww2Ax3JJ7ZaF3GS8L2p9-14" value="Yes" style="text;html=1;align=center;verticalAlign=middle;resizable=0;points=[];autosize=1;" parent="1" vertex="1">
          <mxGeometry x="640" y="150" width="40" height="20" as="geometry" />
        </mxCell>
        <mxCell id="ww2Ax3JJ7ZaF3GS8L2p9-15" value="Display new current score" style="rounded=0;whiteSpace=wrap;html=1;" parent="1" vertex="1">
          <mxGeometry x="1000" y="50" width="120" height="60" as="geometry" />
        </mxCell>
        <mxCell id="4SP8xlYCGWsLMYZ0JimX-1" value="User rolls dice" style="ellipse;whiteSpace=wrap;html=1;" vertex="1" parent="1">
          <mxGeometry x="40" y="170" width="120" height="80" as="geometry" />
        </mxCell>
        <mxCell id="4SP8xlYCGWsLMYZ0JimX-17" value="" style="edgeStyle=orthogonalEdgeStyle;rounded=0;orthogonalLoop=1;jettySize=auto;html=1;" edge="1" parent="1" source="4SP8xlYCGWsLMYZ0JimX-2" target="4SP8xlYCGWsLMYZ0JimX-16">
          <mxGeometry relative="1" as="geometry" />
        </mxCell>
        <mxCell id="4SP8xlYCGWsLMYZ0JimX-2" value="User rolls dice" style="ellipse;whiteSpace=wrap;html=1;" vertex="1" parent="1">
          <mxGeometry x="40" y="420" width="120" height="80" as="geometry" />
        </mxCell>
        <mxCell id="4SP8xlYCGWsLMYZ0JimX-3" value="" style="endArrow=classic;html=1;" edge="1" parent="1">
          <mxGeometry width="50" height="50" relative="1" as="geometry">
            <mxPoint x="160" y="210" as="sourcePoint" />
            <mxPoint x="240" y="210" as="targetPoint" />
          </mxGeometry>
        </mxCell>
        <mxCell id="4SP8xlYCGWsLMYZ0JimX-4" value="Generate random dice roll" style="rounded=0;whiteSpace=wrap;html=1;" vertex="1" parent="1">
          <mxGeometry x="240" y="180" width="120" height="60" as="geometry" />
        </mxCell>
        <mxCell id="4SP8xlYCGWsLMYZ0JimX-5" value="" style="endArrow=classic;html=1;" edge="1" parent="1">
          <mxGeometry width="50" height="50" relative="1" as="geometry">
            <mxPoint x="360" y="209.5" as="sourcePoint" />
            <mxPoint x="430" y="209.5" as="targetPoint" />
          </mxGeometry>
        </mxCell>
        <mxCell id="4SP8xlYCGWsLMYZ0JimX-6" value="Display dice roll" style="rounded=0;whiteSpace=wrap;html=1;" vertex="1" parent="1">
          <mxGeometry x="620" y="180" width="120" height="60" as="geometry" />
        </mxCell>
        <mxCell id="4SP8xlYCGWsLMYZ0JimX-12" value="" style="edgeStyle=orthogonalEdgeStyle;rounded=0;orthogonalLoop=1;jettySize=auto;html=1;" edge="1" parent="1" source="4SP8xlYCGWsLMYZ0JimX-11" target="4SP8xlYCGWsLMYZ0JimX-6">
          <mxGeometry relative="1" as="geometry" />
        </mxCell>
        <mxCell id="4SP8xlYCGWsLMYZ0JimX-15" value="" style="edgeStyle=orthogonalEdgeStyle;rounded=0;orthogonalLoop=1;jettySize=auto;html=1;" edge="1" parent="1" source="4SP8xlYCGWsLMYZ0JimX-11" target="4SP8xlYCGWsLMYZ0JimX-13">
          <mxGeometry relative="1" as="geometry" />
        </mxCell>
        <mxCell id="4SP8xlYCGWsLMYZ0JimX-11" value="Is it a 1?" style="rhombus;whiteSpace=wrap;html=1;" vertex="1" parent="1">
          <mxGeometry x="430" y="170" width="110" height="80" as="geometry" />
        </mxCell>
        <mxCell id="4SP8xlYCGWsLMYZ0JimX-13" value="Generate random dice roll" style="rounded=0;whiteSpace=wrap;html=1;" vertex="1" parent="1">
          <mxGeometry x="425" y="310" width="120" height="60" as="geometry" />
        </mxCell>
        <mxCell id="4SP8xlYCGWsLMYZ0JimX-19" value="" style="edgeStyle=orthogonalEdgeStyle;rounded=0;orthogonalLoop=1;jettySize=auto;html=1;" edge="1" parent="1" source="4SP8xlYCGWsLMYZ0JimX-16" target="4SP8xlYCGWsLMYZ0JimX-18">
          <mxGeometry relative="1" as="geometry" />
        </mxCell>
        <mxCell id="4SP8xlYCGWsLMYZ0JimX-16" value="Generate random dice roll" style="rounded=0;whiteSpace=wrap;html=1;" vertex="1" parent="1">
          <mxGeometry x="240" y="430" width="120" height="60" as="geometry" />
        </mxCell>
        <mxCell id="4SP8xlYCGWsLMYZ0JimX-18" value="Generate random dice roll" style="rounded=0;whiteSpace=wrap;html=1;" vertex="1" parent="1">
          <mxGeometry x="430" y="430" width="120" height="60" as="geometry" />
        </mxCell>
        <mxCell id="4SP8xlYCGWsLMYZ0JimX-20" value="No" style="text;html=1;align=center;verticalAlign=middle;resizable=0;points=[];autosize=1;" vertex="1" parent="1">
          <mxGeometry x="545" y="190" width="30" height="20" as="geometry" />
        </mxCell>
        <mxCell id="4SP8xlYCGWsLMYZ0JimX-21" value="Yes" style="text;html=1;align=center;verticalAlign=middle;resizable=0;points=[];autosize=1;" vertex="1" parent="1">
          <mxGeometry x="440" y="260" width="40" height="20" as="geometry" />
        </mxCell>
      </root>
    </mxGraphModel>
  </diagram>
</mxfile>
